<?xml version="1.0" encoding="utf-8"?>
<!-- Generator: Adobe Illustrator 24.2.0, SVG Export Plug-In . SVG Version: 6.00 Build 0)  -->
<svg version="1.1" xmlns="http://www.w3.org/2000/svg" xmlns:xlink="http://www.w3.org/1999/xlink" x="0px" y="0px"
	 viewBox="0 0 158.24 30.68" style="enable-background:new 0 0 158.24 30.68;" xml:space="preserve">
<style type="text/css">
	.st0{fill-rule:evenodd;clip-rule:evenodd;fill:#AF9241;}
	.st1{fill:#AF9241;}
</style>
<g id="Layer_2">
</g>
<g id="圖層_1">
	<g>
		<g>
			<path class="st0" d="M72.05,29.72h3.87V1.24h-3.87V29.72L72.05,29.72z"/>
			<path class="st1" d="M80.26,29.66V1.19h12.15c5.42,0,8.12,2.21,8.12,6.63c0,3.24-1.77,5.56-5.3,6.95
				c3.77,0.7,5.66,2.86,5.66,6.47c0,5.62-2.97,8.42-8.9,8.42H80.26z M91.77,26.68c3.4,0,5.1-1.72,5.1-5.18
				c0-3.36-2.28-5.04-6.83-5.04h-1.59v-2.41c5.44-0.73,8.16-2.69,8.16-5.9c0-2.66-1.51-3.98-4.54-3.98h-8.13v22.51H91.77z"/>
			<path class="st1" d="M108.92,1.19v2.99h-3.68V1.19H108.92z M108.92,8.75v20.91h-3.68V8.75H108.92z"/>
			<path class="st1" d="M113.27,5.37h2.31l0.8,3.39h4.86v2.99h-4.29v12.01c0,1.95,0.85,2.93,2.53,2.93h1.75v2.99h-2.71
				c-3.51,0-5.26-1.88-5.26-5.63V5.37z"/>
			<g>
				<path class="st1" d="M123.8,1.19h4.48l22.41,28.48h-4.48L123.8,1.19z"/>
				<polygon class="st1" points="150.69,1.19 128.28,29.67 123.8,29.67 146.21,1.19 				"/>
			</g>
			<path class="st0" d="M23.99,25.63c0.82-1.21,1.45-2.62,1.88-4.25H21.6c-0.52,1.75-1.37,3.1-2.53,4.06
				c-1.36,1.13-3.13,1.69-5.27,1.69c-1.48,0-2.8-0.35-3.95-1.05C8.71,25.38,7.77,24.35,7.02,23C6.44,21.96,6,20.81,5.7,19.55
				c-0.29-1.25-0.43-2.6-0.43-4.05c0-1.68,0.18-3.21,0.56-4.59c0.38-1.41,0.96-2.66,1.73-3.74c0.79-1.12,1.74-1.96,2.86-2.53
				c1.12-0.57,2.37-0.86,3.75-0.86c0.87,0,1.7,0.14,2.49,0.41c0.79,0.27,1.55,0.68,2.25,1.21c0.73,0.55,1.33,1.22,1.81,1.99
				c0.34,0.54,0.62,1.14,0.84,1.8h4.41c-0.28-1.5-0.82-2.83-1.61-3.97c-0.99-1.42-2.39-2.58-4.19-3.46l-0.01-0.01
				c-1.77-0.89-3.81-1.33-6.09-1.33c-0.99,0-1.93,0.08-2.81,0.25c-0.9,0.16-1.76,0.41-2.58,0.74l0,0C7.13,2.05,5.8,2.98,4.69,4.19
				c-1.1,1.22-1.99,2.74-2.64,4.55L2.05,8.75c-0.37,1.03-0.65,2.14-0.83,3.31c-0.19,1.17-0.29,2.43-0.29,3.78
				c0,1.68,0.15,3.21,0.44,4.59c0.29,1.36,0.72,2.6,1.29,3.68c0.56,1.09,1.24,2.04,2.01,2.85c0.77,0.8,1.64,1.46,2.62,1.99v0.01
				c0.98,0.54,2.04,0.94,3.15,1.21c1.11,0.27,2.29,0.4,3.56,0.4c1.15,0,2.21-0.12,3.22-0.35c0.99-0.24,1.93-0.59,2.79-1.05l0-0.01
				C21.66,28.3,22.99,27.12,23.99,25.63L23.99,25.63z"/>
			<path class="st0" d="M39.47,6.91c3.18,0,6.04,1.36,8.03,3.53l-0.22,0.29l-0.01-0.02l0,0.04c-0.84,1.17-1.46,2.51-1.78,3.95
				c-1.14-2.16-3.39-3.64-6.01-3.64c-3.74,0-6.78,3.03-6.78,6.77c0,3.74,3.04,6.77,6.78,6.77c3.64,0,6.61-2.88,6.76-6.49
				c-0.01-0.09-0.01-0.19-0.01-0.28c0-2.38,0.77-4.59,2.06-6.39l0.01-0.04l0.01,0.01c1.99-2.73,5.21-4.51,8.84-4.51
				c6.03,0,10.92,4.89,10.92,10.92c0,6.03-4.89,10.92-10.92,10.92c-3.2,0-6.07-1.37-8.07-3.56c0.96-1.26,1.66-2.74,2-4.35
				c1.1,2.22,3.41,3.76,6.07,3.76c3.74,0,6.77-3.03,6.77-6.77c0-3.74-3.03-6.77-6.77-6.77c-3.61,0-6.57,2.83-6.76,6.4l-0.01,0
				c0.01,0.12,0.01,0.24,0.01,0.37c0,6.03-4.88,10.92-10.92,10.92c-6.03,0-10.92-4.89-10.92-10.92C28.55,11.8,33.44,6.91,39.47,6.91
				z"/>
		</g>
	</g>
	<path class="st1" d="M155.81,26.74L155.81,26.74L155.81,26.74c0-0.57-0.23-1.08-0.6-1.45c-0.37-0.37-0.89-0.6-1.45-0.6v0h0v0
		c-0.57,0-1.08,0.23-1.45,0.6c-0.37,0.37-0.6,0.89-0.6,1.45h0v0h0c0,0.38,0.1,0.73,0.28,1.04c0.36,0.61,1.02,1.02,1.77,1.02v0h0v0
		c0.57,0,1.08-0.23,1.45-0.6c0.06-0.06,0.12-0.13,0.17-0.19C155.64,27.66,155.81,27.22,155.81,26.74z M152.83,27.8v-2.17h1.12
		c0.21,0,0.37,0.02,0.48,0.05c0.11,0.04,0.2,0.1,0.27,0.2c0.07,0.1,0.1,0.21,0.1,0.35c0,0.12-0.03,0.22-0.08,0.31
		c-0.05,0.09-0.12,0.16-0.21,0.21c-0.06,0.03-0.14,0.06-0.24,0.09c0.08,0.03,0.14,0.05,0.17,0.08c0.02,0.02,0.06,0.06,0.11,0.11
		c0.05,0.06,0.08,0.1,0.09,0.13l0.32,0.63h-0.76l-0.36-0.66c-0.05-0.09-0.09-0.14-0.12-0.17c-0.05-0.03-0.1-0.05-0.16-0.05h-0.06
		v0.88L152.83,27.8L152.83,27.8z M153.51,26.51h0.28c0.03,0,0.09-0.01,0.18-0.03c0.04-0.01,0.08-0.03,0.11-0.07
		c0.03-0.04,0.04-0.08,0.04-0.13c0-0.07-0.02-0.12-0.07-0.16c-0.04-0.04-0.13-0.06-0.25-0.06h-0.29V26.51z M156.36,26.74
		L156.36,26.74L156.36,26.74c0,0.6-0.2,1.16-0.55,1.6c-0.07,0.09-0.14,0.17-0.22,0.25c-0.47,0.47-1.13,0.76-1.85,0.77v0h0v0
		c-0.96,0-1.8-0.52-2.26-1.29c-0.23-0.39-0.36-0.84-0.36-1.32h0v0h0c0-0.72,0.29-1.38,0.76-1.85c0.47-0.47,1.13-0.76,1.85-0.76v0h0
		v0c0.72,0,1.38,0.29,1.85,0.76C156.07,25.37,156.36,26.02,156.36,26.74L156.36,26.74z"/>
</g>
</svg>
