<svg version="1.1" id="Layer_1" xmlns="http://www.w3.org/2000/svg" xmlns:xlink="http://www.w3.org/1999/xlink" x="0px" y="0px"
	 width="100%" viewBox="0 0 512 512" enable-background="new 0 0 512 512" xml:space="preserve">
<path fill="#2059AA" opacity="1.000000" stroke="none" 
	d="
M375.306335,512.672363 
	C362.645782,513.000000 350.291534,513.000000 337.468658,513.000000 
	C334.008667,510.075256 334.095245,506.609589 336.133972,503.484100 
	C338.397278,500.014343 338.745605,496.422546 338.440704,492.532196 
	C336.788574,471.452179 337.178955,450.307770 338.186310,429.264374 
	C338.549377,421.680328 338.725586,413.705505 340.827637,406.141144 
	C341.674988,403.091980 339.691803,400.309692 339.770264,397.313507 
	C340.040253,387.002686 338.950134,376.741272 338.660126,366.451080 
	C338.538116,362.122955 338.544769,357.766296 339.656555,353.563324 
	C341.151489,347.911835 340.090576,342.273041 339.543945,336.718658 
	C338.950714,330.691162 342.262207,325.920044 343.469543,320.043274 
	C343.825989,281.223999 343.580383,242.866257 343.596741,204.508865 
	C343.599609,197.792664 342.402313,196.663284 335.847870,196.360809 
	C334.023193,196.276581 332.195923,196.247223 329.976685,195.829529 
	C327.240784,193.719452 325.870483,191.098923 324.752258,188.337662 
	C324.063843,186.637802 323.602783,184.705368 322.398895,183.406830 
	C317.665741,178.301666 316.328613,172.215210 316.560638,165.527069 
	C316.621399,163.775269 315.821838,162.397522 314.152649,161.480087 
	C309.261566,158.791733 304.232574,156.396133 299.474243,153.400803 
	C296.077484,151.262619 291.632355,151.508453 288.091278,153.965347 
	C285.138428,156.014099 282.221466,157.665039 277.851288,156.998734 
	C281.264496,160.314804 284.912567,159.446396 288.269958,159.765488 
	C290.608032,159.987701 293.439270,159.951950 293.586090,163.032639 
	C293.738403,166.227722 291.122498,167.061508 288.425964,167.157043 
	C280.943298,167.422150 273.458862,167.386765 265.974335,167.156937 
	C263.363892,167.076767 261.257416,165.643265 258.963196,164.711136 
	C257.016937,163.920364 255.226746,163.572815 253.442703,165.256119 
	C245.555603,172.697922 236.229721,175.926437 225.464767,174.108749 
	C218.338394,172.905441 211.195877,173.520187 204.061157,173.312546 
	C200.415695,173.206467 196.745880,173.485718 193.242981,172.017609 
	C191.837341,171.428467 190.109879,171.285065 188.862579,172.089828 
	C184.279694,175.046707 179.049377,176.770798 174.203018,179.052017 
	C168.833359,181.579575 164.089767,185.885040 157.141159,185.690292 
	C152.147797,185.550369 148.740143,190.233093 145.718201,194.743149 
	C142.411179,196.952682 138.996887,196.142166 135.732254,196.312073 
	C133.045731,196.451889 130.372116,196.399780 128.060410,198.917542 
	C122.427589,200.775742 116.499527,200.028381 111.752533,203.752167 
	C110.687798,204.587387 108.863716,204.093811 107.011963,203.635605 
	C104.359344,203.568970 103.098175,201.997269 101.697487,200.552048 
	C98.178581,196.921249 93.917343,195.348297 88.998199,196.918976 
	C83.940674,198.533829 81.115219,202.241241 80.337425,207.489594 
	C80.071075,209.286880 80.115875,211.173767 78.464729,212.901840 
	C75.362907,214.716476 72.328560,214.404099 69.393913,213.982742 
	C62.245934,212.956436 55.720810,214.887955 49.055561,217.198181 
	C43.902512,218.984283 38.879047,221.179794 33.634842,222.644211 
	C29.292328,223.856827 24.905066,224.696838 21.622814,228.176300 
	C20.949238,228.890366 19.832901,229.002365 18.819016,229.060150 
	C13.017412,229.390747 7.290439,228.875076 1.317317,227.274475 
	C1.000000,219.645752 1.000000,212.291504 1.000000,204.468628 
	C2.900510,201.523285 5.525836,200.462418 8.419278,199.355042 
	C18.485241,195.502563 29.172062,193.985504 39.424660,190.808426 
	C43.759880,189.465027 48.875561,189.969284 53.538548,188.747650 
	C54.991837,188.366882 56.704796,188.353363 57.743710,187.314468 
	C62.681026,182.377274 69.278282,181.982788 75.504204,180.606735 
	C82.048363,179.160339 88.151619,176.734741 94.051277,173.529175 
	C98.348785,171.194122 103.263161,170.278809 107.718277,168.012955 
	C112.909706,165.372635 118.543159,163.415848 124.056213,161.415268 
	C134.847183,157.499451 146.184860,154.515503 156.225098,148.648560 
	C162.836502,144.785233 169.047195,140.374802 173.247574,133.654160 
	C175.559769,129.954666 178.743057,127.351891 183.520081,127.837151 
	C186.232697,128.112701 188.094727,127.101555 189.963394,125.007080 
	C192.912064,121.702080 197.365448,120.396637 201.308426,118.953278 
	C209.908783,115.805069 215.189713,108.901466 221.404602,103.000633 
	C224.580292,99.985390 227.076172,96.447037 228.779129,92.415108 
	C230.048203,89.410515 232.318085,87.867012 235.405746,88.144684 
	C238.003067,88.378265 239.846024,87.317696 241.820480,86.007233 
	C243.390732,84.965042 243.973541,84.104263 243.406815,81.977669 
	C241.807404,75.975838 246.682098,70.662483 252.879944,71.593674 
	C255.319443,71.960175 256.622681,71.324226 258.439667,69.621346 
	C263.575012,64.808357 267.321381,58.992729 271.262146,53.315720 
	C273.505127,50.084473 274.976013,46.012802 275.868805,42.543114 
	C278.504364,32.300468 284.266296,23.088770 285.196442,12.252559 
	C285.495239,8.771679 285.907013,4.632507 288.746033,1.264964 
	C362.228699,1.000000 435.457428,1.026099 508.685974,0.917557 
	C512.097778,0.912499 513.151550,1.374280 513.118469,5.175004 
	C512.892517,31.135939 513.000000,57.099781 513.000000,83.531342 
	C512.640625,84.346573 512.320618,84.922485 511.907684,84.996788 
	C504.883759,86.260658 502.389923,92.096390 499.406891,97.388321 
	C497.971588,99.934464 495.828308,101.875641 493.608002,103.484703 
	C486.638794,108.535309 480.802368,114.436043 477.333405,122.438446 
	C476.656982,123.998871 475.492126,125.207924 474.305908,126.372406 
	C471.689240,128.941177 469.888275,131.763748 468.517822,135.366287 
	C466.927155,139.547592 464.102844,143.690201 460.722046,146.720535 
	C456.166748,150.803543 454.297638,156.313232 451.426605,161.258331 
	C447.955658,167.236679 446.066284,174.036179 441.943237,179.754303 
	C439.578949,183.033264 439.898285,187.370132 438.410309,191.106262 
	C435.510071,198.388290 430.966217,204.702881 427.142548,211.433121 
	C426.123199,213.227295 425.657806,215.044250 425.037140,216.921432 
	C423.280334,222.234879 421.881165,227.824463 416.496338,231.462234 
	C414.179047,232.379105 412.234039,231.970474 410.263763,231.550781 
	C396.929504,228.710342 384.505127,231.924103 372.500061,237.455978 
	C367.187439,239.904022 366.720490,241.047012 368.421875,244.719986 
	C371.338226,251.016113 372.740845,251.685913 378.111206,249.290756 
	C384.877625,246.272964 391.820526,244.196365 399.369568,244.792145 
	C406.347260,245.342834 411.182861,249.124466 413.190552,255.820801 
	C414.731018,260.958771 413.367798,263.326691 408.050629,264.295349 
	C398.225342,266.085297 388.379456,267.720428 378.999878,271.374695 
	C367.735413,275.763336 362.191132,283.632050 362.317108,295.349335 
	C362.449921,307.698639 371.624420,316.846497 384.592102,317.671997 
	C387.682434,317.868744 390.986969,317.072144 393.997864,319.621277 
	C396.713013,326.584473 397.440918,333.186127 393.893494,339.707794 
	C392.149628,342.913757 392.459412,346.503510 392.002747,349.945312 
	C390.409485,361.953949 388.410339,373.946686 389.366150,386.128357 
	C390.185699,396.573181 386.668701,406.503937 385.931641,416.766907 
	C385.693573,420.081696 385.339203,423.388489 385.334320,426.715057 
	C385.329407,430.066071 384.334381,433.221222 383.740448,436.459625 
	C382.402771,443.753143 382.086548,451.230804 381.445984,458.636475 
	C381.044159,463.282257 380.886658,467.818176 379.195251,472.315491 
	C377.534119,476.732117 378.176239,481.523254 378.842621,486.151794 
	C379.373352,489.838043 379.402466,493.414337 377.864685,496.923828 
	C376.428497,500.201477 376.136749,503.690613 376.598785,507.213928 
	C376.842163,509.069580 377.145813,510.863251 375.306335,512.672363 
z"/>
<path fill="#164B99" opacity="1.000000" stroke="none" 
	d="
M202.303680,512.732910 
	C136.398376,513.000000 70.796654,512.957886 5.195384,513.109619 
	C1.451866,513.118286 0.908202,512.168945 0.913180,508.703430 
	C1.026077,430.114838 1.000000,351.526062 1.000000,272.468658 
	C2.811266,269.450684 5.344323,268.669556 8.375793,268.690094 
	C12.371798,268.717133 16.373056,268.754272 20.367998,268.612671 
	C25.759926,268.421600 31.019785,267.506104 35.609276,264.486084 
	C41.608936,260.538116 48.069607,259.809570 54.731380,261.868134 
	C59.768539,263.424622 64.836037,263.687469 70.006378,263.738739 
	C73.856285,263.776917 77.626251,264.435364 81.554352,266.266693 
	C83.702789,268.861298 83.280525,271.618958 83.308563,274.226318 
	C83.431862,285.695160 83.322212,297.165344 83.373322,308.634857 
	C83.409958,316.858002 84.258720,317.655243 92.634636,317.628754 
	C93.133308,317.627167 93.632103,317.629456 94.130600,317.616119 
	C100.333282,317.449982 101.549576,316.261017 101.604118,309.776947 
	C101.704781,297.809174 101.574539,285.840088 101.671623,273.872406 
	C101.700974,270.253967 101.122887,266.542877 103.009285,262.701111 
	C110.563698,259.066437 118.097740,259.102173 126.163544,260.556519 
	C129.783539,262.381927 129.219559,265.488129 129.250031,268.214478 
	C129.402679,281.871765 129.283966,295.530609 129.325256,309.188843 
	C129.349762,317.291382 129.727249,317.650146 137.779999,317.678253 
	C147.492386,317.712158 147.654800,317.553741 147.680908,308.047180 
	C147.699661,301.218109 147.754776,294.387604 147.676514,287.560394 
	C147.629883,283.492706 148.636246,280.085144 151.835602,277.360291 
	C154.887177,274.761292 156.869522,271.170990 159.806122,268.427856 
	C164.688049,263.867493 167.099991,264.052917 170.961151,269.658203 
	C180.878632,284.055389 190.674698,298.535187 200.296570,313.132233 
	C201.487869,314.939545 202.663803,316.758423 204.183105,318.826416 
	C207.722397,326.126160 208.935913,333.704590 210.801147,341.067535 
	C211.986862,345.748169 210.971237,350.185547 208.244415,354.380951 
	C201.519852,364.727142 196.645416,375.649658 198.254089,388.534485 
	C198.609207,391.378784 199.661285,394.020569 199.965805,396.793823 
	C200.492416,401.589508 200.729279,406.427704 198.992584,411.114807 
	C198.006454,413.776276 197.229187,416.506683 197.334229,419.393768 
	C197.500320,423.957520 196.345276,428.116913 194.680740,432.422394 
	C191.021149,441.888275 192.817703,451.027130 199.566849,458.442535 
	C205.309097,464.751587 209.596527,472.060547 215.001083,478.562866 
	C217.177200,481.181000 217.857132,484.429169 216.627121,487.507599 
	C213.478897,495.386780 210.006302,503.138519 205.275055,510.244141 
	C204.600510,511.257172 203.517929,511.751495 202.303680,512.732910 
z"/>
<path fill="#1D54A5" opacity="1.000000" stroke="none" 
	d="
M344.626190,319.581848 
	C346.380920,321.775269 346.394196,323.947693 345.020386,325.498322 
	C340.388702,330.725983 341.945648,336.783813 342.503296,342.629395 
	C342.790649,345.641724 342.996765,348.524780 342.408234,351.527252 
	C340.700592,360.238983 340.567047,368.961212 341.738220,377.816437 
	C342.453094,383.221893 341.956635,388.787811 341.999329,394.281708 
	C342.016144,396.444855 341.860748,398.643188 342.870605,400.654327 
	C344.161255,403.224670 344.132812,405.730011 342.905792,408.333679 
	C342.421967,409.360352 342.127228,410.562286 342.083954,411.697327 
	C341.541382,425.929962 339.129211,440.040985 339.912262,454.377045 
	C340.646271,467.815826 339.232849,481.321838 340.945312,494.761688 
	C341.387329,498.230621 341.186737,501.651794 338.285767,504.469452 
	C336.171234,506.523254 337.188385,509.523438 337.000000,512.566040 
	C324.645782,513.000000 312.291534,513.000000 299.468658,513.000000 
	C296.879974,511.393311 296.726288,509.067749 296.706940,506.699402 
	C296.636169,498.042114 296.603333,489.384888 296.732788,480.727661 
	C296.765564,478.535522 297.094055,476.420715 298.127655,474.454895 
	C299.158203,472.494934 299.931580,470.335175 299.476227,468.205322 
	C298.017365,461.381836 300.404938,455.035767 301.646301,448.559998 
	C302.277710,445.266296 303.004333,441.968475 302.493713,438.661530 
	C301.162628,430.041138 301.801514,421.381287 301.689545,412.737762 
	C301.637756,408.741577 301.487885,404.704559 305.142517,401.777771 
	C306.640808,400.577850 306.132507,399.089691 304.829865,397.936188 
	C303.421082,396.688751 302.228271,395.302032 302.017578,393.371307 
	C300.824066,382.433960 299.193176,371.056580 302.474213,360.697693 
	C304.919525,352.977295 305.620972,345.634949 305.616791,337.890198 
	C305.615631,335.699646 305.407745,333.544373 304.033783,331.713196 
	C301.516449,328.358215 301.442322,324.636627 302.402161,320.330688 
	C303.421936,316.694672 303.690063,313.421722 303.680023,310.081329 
	C303.635895,295.322632 303.616791,280.563538 303.673401,265.804932 
	C303.719391,253.816803 300.479431,243.239197 290.850952,234.834686 
	C288.801971,229.258286 287.923645,223.517288 282.962616,219.955292 
	C280.749084,218.365967 279.890045,216.109909 279.762848,213.507095 
	C279.578369,209.730865 277.448486,208.276627 273.870087,208.360901 
	C272.198029,208.400284 270.580261,208.717377 268.937439,208.937927 
	C264.707642,209.505783 260.926971,209.231232 257.630615,205.591873 
	C254.716858,202.374908 250.606155,200.613846 246.099945,200.318481 
	C243.767212,200.165558 241.482254,199.908707 239.358948,198.803436 
	C236.572433,197.352890 234.168854,198.889282 231.829132,200.028992 
	C229.598129,201.115738 227.519943,201.789322 225.072433,199.833008 
	C223.744812,197.126266 221.819870,196.229187 219.251480,196.319016 
	C217.606934,196.376526 215.943695,196.439285 214.309601,196.285141 
	C205.700562,195.473160 197.614273,196.252808 191.092178,203.424576 
	C182.566467,202.278900 174.816055,202.573013 166.791306,205.515518 
	C162.003220,207.271225 156.122696,207.939667 150.259949,206.221466 
	C148.331009,205.057816 147.862808,203.490585 147.846863,201.811646 
	C147.820663,199.052322 146.670593,196.770691 145.058014,194.225174 
	C144.660233,189.520401 148.915146,188.506363 150.605652,185.820419 
	C153.174881,181.738312 156.009644,182.288895 159.486755,183.305603 
	C159.958511,183.443542 160.742661,183.680908 160.923248,183.473206 
	C164.144867,179.768127 168.842880,179.006729 173.028946,177.173660 
	C180.555084,173.877945 186.937332,166.840179 196.493866,170.497604 
	C197.982956,171.067474 199.783432,171.052902 201.421875,170.966476 
	C212.912369,170.360367 224.330811,171.954971 235.798019,172.021194 
	C238.577179,172.037231 241.077576,171.832611 242.700394,169.088821 
	C243.612885,167.546005 245.263031,167.073608 247.012619,166.988266 
	C248.570679,166.912262 250.174637,166.603333 250.646179,164.902222 
	C252.035477,159.890182 255.550980,160.275879 258.867279,162.052628 
	C268.822815,167.386414 279.450989,164.120987 289.751984,164.878067 
	C290.732971,164.950165 291.992828,164.560760 292.022827,163.393524 
	C292.056488,162.083679 290.692261,161.895447 289.779785,162.072083 
	C283.338745,163.318970 277.986755,160.205368 272.409363,157.928726 
	C271.625732,157.608841 270.667236,157.482727 270.709412,156.468231 
	C270.750214,155.487152 271.643677,155.154312 272.502655,155.118500 
	C274.496948,155.035355 276.494843,154.993713 278.490814,155.006256 
	C280.690979,155.020081 283.146240,155.101974 284.624420,153.446625 
	C288.276733,149.356506 292.938904,149.935120 297.571808,150.017609 
	C299.105835,150.044937 300.532654,150.314957 301.728760,151.396072 
	C305.881897,155.149933 310.907745,157.322113 316.106171,159.108109 
	C317.727325,159.665100 319.097290,160.607056 318.816010,162.190277 
	C317.154663,171.541824 321.975677,178.698273 326.399780,186.092422 
	C327.651550,188.184540 328.114868,190.748398 328.967926,193.463593 
	C325.420990,197.874222 325.307922,202.744980 325.321106,207.803787 
	C325.408142,241.257980 325.348511,274.712524 325.376556,308.166931 
	C325.383881,316.880280 326.079315,317.455811 334.740906,317.678192 
	C337.982239,317.761383 341.446167,316.883362 344.626190,319.581848 
z"/>
<path fill="#194E9C" opacity="1.000000" stroke="none" 
	d="
M202.468658,513.000000 
	C204.676804,504.738495 210.090012,497.816833 213.285645,489.761688 
	C215.202133,484.930939 214.116516,482.131226 211.308502,477.780182 
	C205.195908,468.308655 196.012619,460.923920 191.795670,450.443481 
	C189.365738,444.404327 189.645554,437.291351 192.592560,431.024994 
	C194.275314,427.446808 195.296127,423.929047 195.012177,420.001007 
	C194.805756,417.145142 195.252808,414.375946 196.257614,411.677216 
	C198.475372,405.720734 197.764511,399.910339 196.783585,393.648468 
	C195.397110,384.797638 194.076279,375.487488 199.012436,366.900269 
	C201.897797,361.880707 203.409210,356.163879 207.125443,351.516510 
	C209.300903,348.795990 209.494781,345.331543 208.630066,341.964508 
	C206.823227,334.929077 204.921173,327.918121 203.027298,320.516357 
	C203.886871,317.696899 206.058777,317.902496 207.999680,317.810150 
	C212.142471,317.613129 216.292282,317.770599 220.438843,317.699768 
	C223.818878,317.642059 224.654526,316.337067 222.728622,313.401825 
	C218.363785,306.749390 214.077179,300.038391 209.468628,293.556976 
	C201.009705,281.660431 193.207916,269.327759 185.034515,257.242767 
	C183.839447,255.475754 182.490891,253.699371 182.915665,250.969482 
	C185.147568,247.130020 188.234680,247.429062 191.275314,248.888870 
	C193.888657,250.143555 196.465424,250.931870 199.380859,250.567261 
	C197.552902,245.590637 198.389725,244.173737 203.447128,243.812454 
	C206.434555,243.599060 209.433075,243.771698 212.426834,243.778107 
	C215.474030,243.784607 218.013733,244.856918 219.845673,247.220963 
	C225.666382,254.732330 232.718750,261.061279 239.342804,267.803314 
	C240.264816,268.741791 241.256409,269.667999 241.913712,271.283691 
	C242.460007,274.336212 240.769974,276.059418 239.050217,277.612518 
	C226.958847,288.532135 231.156952,311.723511 248.149261,316.422424 
	C249.909973,316.909302 251.638931,317.562653 253.152496,319.297333 
	C256.371216,322.257996 256.786407,326.196991 258.473450,329.456543 
	C263.597351,339.356537 261.456421,349.892212 262.592773,360.145935 
	C263.339813,366.886658 264.412567,373.587128 264.626373,380.387970 
	C264.663055,381.554535 265.087524,382.718353 265.770142,383.656219 
	C266.809998,385.084839 266.908875,387.711334 268.934479,387.783325 
	C271.144531,387.861847 270.522888,385.313019 271.119720,383.905823 
	C271.673279,382.600677 272.480652,381.475433 273.985870,381.505066 
	C275.726349,381.539337 276.598602,382.774841 276.947662,384.376343 
	C277.232300,385.682159 277.285675,387.016937 277.294434,388.348785 
	C277.361023,398.499023 277.350494,408.649292 277.301605,418.799683 
	C277.286957,421.843658 276.868408,424.654083 274.940216,427.244690 
	C272.938232,429.934357 273.400513,433.279755 273.345551,436.428925 
	C273.296173,439.256653 273.400635,442.087677 273.179230,444.911560 
	C273.017303,446.976715 272.690826,449.255035 270.188171,449.410797 
	C267.583313,449.572906 267.090790,447.408539 266.995300,445.417633 
	C265.330048,456.066925 264.743103,466.948517 263.991943,477.850220 
	C263.278778,488.200287 263.051941,498.760254 260.293671,508.937225 
	C259.937134,510.252716 259.635254,511.504517 258.280914,512.711243 
	C239.645767,513.000000 221.291550,513.000000 202.468658,513.000000 
z"/>
<path fill="#2664B7" opacity="1.000000" stroke="none" 
	d="
M462.279968,512.712097 
	C450.979095,513.000000 439.958221,513.000000 428.468658,513.000000 
	C425.349487,508.302826 425.901367,503.044891 426.099457,498.096344 
	C426.292480,493.274078 426.539734,488.557343 425.972107,483.720398 
	C425.353943,478.453156 426.009033,473.163208 426.603058,467.841125 
	C427.334991,461.282623 430.067017,455.052795 430.683533,448.925629 
	C431.774261,438.085541 436.396790,428.567780 439.652496,418.708374 
	C441.566162,412.913239 441.386719,405.739288 446.572235,401.046753 
	C447.037323,400.625885 447.451477,399.785950 447.277222,399.230835 
	C444.859009,391.527466 451.017700,385.339661 450.965149,378.069092 
	C450.957794,377.051666 451.242645,375.978912 451.909637,375.272278 
	C456.526764,370.380951 455.732819,364.207733 456.016663,358.298950 
	C456.080688,356.966583 455.768127,355.465149 456.548126,354.397949 
	C462.106445,346.792877 461.956451,336.704407 467.606232,329.155548 
	C468.001862,328.626953 468.364563,327.949036 468.314453,327.311920 
	C467.586639,318.061310 473.545502,311.041626 476.420135,303.000549 
	C477.154572,300.946228 477.499329,298.875641 477.904480,296.753723 
	C479.586609,287.944366 480.886017,279.337463 489.390106,273.255005 
	C495.006256,269.238129 499.010620,262.828979 504.054047,257.802521 
	C506.274323,255.589706 508.319489,252.447861 512.680542,253.758423 
	C513.000000,285.687561 513.000000,317.375122 513.000000,349.531342 
	C510.305267,352.471588 511.622864,356.196960 509.974091,359.256683 
	C507.563599,363.729980 505.193359,368.314423 502.868256,372.855377 
	C498.560181,381.269104 495.303528,390.140594 491.154694,398.631958 
	C486.297150,408.573761 481.416840,419.066559 482.251251,430.843292 
	C482.465942,433.873535 481.978851,436.969727 480.915924,439.685699 
	C477.127930,449.364746 478.090393,460.099609 473.843781,469.697601 
	C472.318909,473.144135 473.376587,477.266052 472.780029,481.074554 
	C471.923553,486.542480 468.200073,491.513977 469.915070,497.431519 
	C470.039581,497.861023 469.864655,498.505188 469.555420,498.856720 
	C466.087280,502.799225 465.076508,507.999481 462.279968,512.712097 
z"/>
<path fill="#245FB0" opacity="1.000000" stroke="none" 
	d="
M1.298790,191.253159 
	C1.000000,184.312363 1.000000,177.624710 1.000000,170.468536 
	C6.020685,167.060181 11.635094,165.674484 17.131660,164.073792 
	C23.043350,162.352188 28.850735,160.475098 34.227322,157.420166 
	C35.235218,156.847458 36.254242,156.207428 37.429039,156.065918 
	C48.323349,154.753738 57.477303,148.973434 67.220734,144.656738 
	C70.523712,143.193390 73.819183,141.309021 77.481468,140.924271 
	C83.858498,140.254349 88.772331,136.310425 94.281364,133.745468 
	C99.665054,131.238861 104.138535,127.165924 109.253769,124.158920 
	C111.593803,122.783333 113.459312,120.908417 115.172295,118.855858 
	C123.586151,108.774094 133.422806,100.134750 142.955048,91.170723 
	C147.156448,87.219772 149.985016,82.028236 154.150375,77.896729 
	C159.339081,72.750198 164.782196,67.854279 169.766678,62.499760 
	C173.629105,58.350613 177.674957,54.448162 176.248352,47.775398 
	C175.803482,45.694557 176.560745,43.125423 177.458633,40.972191 
	C182.010925,30.055227 183.636459,18.347000 186.665436,7.021259 
	C187.316711,4.586069 188.248657,2.711217 190.719788,1.253334 
	C206.354233,1.000000 221.708450,1.000000 237.531342,1.000000 
	C238.421555,1.510569 239.133698,1.965400 239.128555,2.606713 
	C239.058243,11.374470 240.211288,20.177017 238.234512,28.893110 
	C237.244812,33.256924 235.691605,37.496143 235.198975,41.963604 
	C234.952316,44.200352 233.786835,45.974575 232.889450,47.934608 
	C230.829163,52.434689 228.046356,56.611465 226.984497,61.577488 
	C225.821365,67.017097 221.894012,70.380180 217.425537,73.128479 
	C215.813751,74.119789 214.050156,75.047539 213.708984,76.922752 
	C212.928772,81.210876 209.991959,83.877739 207.040100,86.562370 
	C205.648056,87.828400 204.758224,89.352951 203.866257,90.972450 
	C202.230392,93.942558 199.700119,96.066772 196.792709,97.799171 
	C188.765244,102.582390 180.402420,106.882286 173.754166,113.675987 
	C170.501221,117.000107 167.125626,120.205734 164.002090,123.654610 
	C160.684982,127.317207 155.402435,128.477676 152.216797,131.709671 
	C144.203003,139.840073 132.783478,142.383163 124.535011,149.874374 
	C124.044312,150.320038 123.429207,150.676682 122.768898,150.767029 
	C112.070518,152.231049 103.671349,159.106003 94.039825,163.095352 
	C82.461105,167.891235 71.080338,173.484177 59.011234,176.583099 
	C48.349667,179.320633 37.935944,182.950073 27.232233,185.593567 
	C20.477711,187.261719 13.841685,190.291153 6.789284,191.644272 
	C4.974440,191.992508 3.304921,192.818878 1.298790,191.253159 
z"/>
<path fill="#225BAD" opacity="1.000000" stroke="none" 
	d="
M1.000000,191.463181 
	C6.217062,188.889145 11.535190,187.355331 17.271431,187.771500 
	C17.984827,187.823257 18.981567,187.320496 19.459007,186.749969 
	C23.752502,181.619354 29.847309,181.372437 35.684769,181.141052 
	C39.104961,181.005478 41.532093,179.151566 44.441296,178.174500 
	C52.379101,175.508545 60.685108,173.848724 68.449974,170.787628 
	C74.282303,168.488403 80.708008,167.699295 85.867752,163.106689 
	C88.445976,160.811844 92.886520,159.890060 96.429604,158.621307 
	C100.292831,157.237915 103.958405,155.244827 107.940346,154.163483 
	C108.735947,153.947418 110.019196,153.718994 110.171852,153.219498 
	C111.947372,147.409409 116.783852,149.393997 120.674812,148.873581 
	C121.767616,148.727417 123.114349,148.307861 123.785286,147.530777 
	C128.273773,142.332230 134.685608,140.448990 140.556595,137.704605 
	C143.436920,136.358185 145.347900,134.097931 147.275726,131.892517 
	C150.590698,128.100235 155.989334,128.008743 159.436386,124.444992 
	C164.610077,119.096138 170.179871,114.128799 175.318878,108.748657 
	C177.806656,106.144157 180.830002,104.564011 183.861725,102.936867 
	C188.819016,100.276237 194.052322,97.155983 197.726624,93.605087 
	C203.101685,88.410522 209.804626,83.339798 211.618271,75.074844 
	C212.082153,72.960930 214.039017,72.135574 215.854263,71.162605 
	C220.528030,68.657440 224.416000,65.320869 224.942993,59.596588 
	C225.282150,55.912796 227.684097,53.190659 229.142166,50.101383 
	C235.587860,36.444576 237.653000,22.120348 237.052902,7.219131 
	C236.980911,5.432071 237.554993,3.618994 237.914825,1.408989 
	C254.687561,1.000000 271.375122,1.000000 288.531342,1.000000 
	C288.395172,9.719491 286.760895,18.107937 283.905212,26.499516 
	C282.132385,31.709078 280.306122,37.212818 278.417175,42.287880 
	C276.697266,46.908913 274.800110,51.996674 271.980621,56.585159 
	C268.408020,62.399242 263.008698,66.508621 259.768524,72.326729 
	C258.298492,74.966309 256.503937,75.207703 253.965469,74.423103 
	C249.745438,73.118759 245.577850,75.343636 244.596802,79.452652 
	C243.994354,81.976051 245.451523,81.891678 247.180191,81.189224 
	C247.917023,80.889801 248.787506,80.162636 249.383286,81.135353 
	C250.024185,82.181747 249.243683,83.001312 248.444275,83.649864 
	C245.484665,86.050911 242.531738,88.461113 239.526611,90.804131 
	C239.047760,91.177475 238.096405,91.586510 237.730942,91.367081 
	C232.443436,88.192268 231.753387,92.458031 229.674759,95.727409 
	C221.697128,108.275093 211.366989,118.248550 197.096542,123.547096 
	C194.347519,124.567787 191.509674,125.430130 190.258484,128.777954 
	C189.420502,131.020142 187.184555,130.840210 185.072876,130.292145 
	C181.019836,129.240234 177.626434,130.546066 175.714905,134.176498 
	C171.968979,141.290756 165.733627,146.041794 159.152802,149.556259 
	C150.637207,154.104004 142.029709,159.115082 132.015747,160.108032 
	C130.618042,160.246613 129.538284,161.015472 128.559692,161.953979 
	C126.423775,164.002396 124.095772,165.405930 120.938530,164.576553 
	C119.165855,164.110901 117.720726,165.146011 116.257088,165.912994 
	C110.070885,169.154663 104.252815,172.793762 97.222710,174.699371 
	C92.440018,175.995758 87.865746,179.536057 82.851891,181.083710 
	C76.928596,182.912094 70.752663,183.920441 64.690407,185.302521 
	C64.057159,185.446884 63.246685,185.529099 62.864525,185.952515 
	C56.892620,192.569092 48.640835,191.164581 41.130379,192.970291 
	C34.900188,194.468216 28.326097,195.348648 22.184233,197.873672 
	C15.650842,200.559647 8.595229,201.975372 1.383820,203.972870 
	C1.000000,199.975449 1.000000,195.950912 1.000000,191.463181 
z"/>
<path fill="#2664B7" opacity="1.000000" stroke="none" 
	d="
M190.531342,1.000000 
	C187.928009,12.166577 184.522110,23.254177 182.923325,34.771339 
	C182.730820,36.158020 182.043396,37.240223 181.253647,38.330467 
	C179.100906,41.302315 177.945053,45.067467 178.699417,48.251411 
	C180.303085,55.020004 176.279617,59.052120 172.559143,63.073807 
	C166.582733,69.534058 160.102386,75.529877 153.798111,81.684181 
	C151.284851,84.137657 148.776550,86.589279 147.524902,89.963989 
	C146.291763,93.288734 142.690079,93.826408 140.512299,96.106033 
	C135.031815,101.842850 129.349670,107.400986 123.516006,112.778687 
	C121.541489,114.598892 119.691925,116.401146 118.206657,118.635826 
	C113.570465,125.611320 106.108788,129.001328 99.302391,133.141632 
	C96.380806,134.918808 93.278656,136.665405 90.481216,138.457764 
	C83.951836,142.641190 75.924080,142.311539 69.681160,146.251053 
	C62.391861,150.850891 53.512642,151.873825 46.681938,157.252304 
	C46.309856,157.545288 45.782627,157.743591 45.308517,157.789734 
	C32.441788,159.042282 21.561922,166.387222 9.308933,169.476059 
	C6.941657,170.072830 4.366909,169.846588 1.443933,170.000000 
	C1.000000,162.312424 1.000000,154.624832 1.000000,146.468628 
	C3.998380,142.384262 8.534494,141.500198 12.579202,140.724670 
	C20.208954,139.261734 26.893776,135.520920 33.791622,132.564041 
	C41.075222,129.441803 48.577976,126.800407 55.739296,123.234917 
	C68.459793,116.901604 79.028526,108.104248 89.331001,98.575546 
	C94.415550,93.872879 99.688614,89.344574 104.580254,84.425156 
	C110.684013,78.286728 116.294426,71.752266 120.369797,64.015678 
	C126.479622,52.416996 132.533310,40.772739 138.338684,29.038374 
	C141.442123,22.765388 145.273392,16.002920 143.041809,8.139455 
	C142.329483,5.629405 143.151932,3.177207 145.737152,1.264383 
	C160.687561,1.000000 175.375122,1.000000 190.531342,1.000000 
z"/>
<path fill="#1A51A1" opacity="1.000000" stroke="none" 
	d="
M258.468658,513.000000 
	C257.920288,504.689941 259.820557,496.558441 260.555023,488.320526 
	C261.248260,480.544800 261.926941,472.808289 262.039429,465.000671 
	C262.083527,461.937866 261.127686,458.634583 263.719574,455.972015 
	C264.625946,455.040894 263.911835,454.159363 263.192810,453.396484 
	C262.306183,452.455719 261.910370,451.266388 262.689240,450.214935 
	C264.924469,447.197388 265.033875,443.752289 265.123535,440.229492 
	C265.160828,438.764282 265.435181,436.807648 267.240112,436.748505 
	C269.480438,436.675171 268.817963,438.823853 268.971924,440.169525 
	C269.260315,442.690399 268.505249,445.341278 270.037354,448.831268 
	C271.663055,443.519623 270.871887,439.106262 270.950348,434.788055 
	C271.017914,431.069641 270.994659,427.456177 273.805817,424.523987 
	C274.769379,423.518951 274.970886,422.153381 274.970245,420.794128 
	C274.964508,408.811676 274.955872,396.829193 274.925079,384.846771 
	C274.923462,384.224243 274.886475,383.504944 273.725342,383.186890 
	C272.488220,384.841522 273.120667,386.866882 272.995087,388.704010 
	C272.853363,390.776276 272.069183,392.230103 269.949249,392.685822 
	C267.712891,393.166595 266.765839,391.856476 265.815552,390.028412 
	C262.918762,384.455750 262.651489,378.457581 261.677277,372.400269 
	C259.946014,361.636108 261.663361,350.628143 259.414612,340.292877 
	C258.002960,333.804932 256.513641,326.477539 252.087616,320.322937 
	C252.792130,318.115692 254.470596,317.839203 256.156494,317.826324 
	C264.659912,317.761322 271.959412,314.347656 278.947449,309.903320 
	C284.015686,306.679932 285.721039,307.218353 287.618042,312.947723 
	C288.740906,316.338898 290.684967,317.660736 294.192413,317.742004 
	C297.397736,317.816254 300.924377,316.737579 303.853882,319.790161 
	C303.967194,324.141022 303.540527,328.165558 307.117920,331.206848 
	C308.304321,332.215454 307.982605,334.002167 307.988617,335.490997 
	C308.008087,340.315338 307.959320,345.140167 308.013336,349.963989 
	C308.050812,353.309418 308.256042,356.594818 305.273193,359.113525 
	C304.517090,359.751953 304.247894,361.191833 304.113556,362.306671 
	C302.918549,372.222687 303.523743,382.150421 304.039246,392.075806 
	C304.133270,393.885773 304.712921,395.420837 306.640533,395.860901 
	C309.578308,396.531555 310.063782,398.578186 309.978973,401.138977 
	C309.895844,403.650055 308.728668,404.514130 306.212982,404.604797 
	C304.010223,404.684174 303.991089,406.815460 304.044006,408.462402 
	C304.347748,417.917786 303.295990,427.390198 304.810059,436.840118 
	C305.996277,444.244171 303.467865,451.313843 301.972900,458.439270 
	C301.560547,460.404572 301.100250,462.229980 301.521088,464.300903 
	C302.359253,468.425354 302.571960,472.523376 299.975861,476.295288 
	C298.798706,478.005585 299.002136,480.119598 299.001892,482.118164 
	C299.000732,492.099670 299.000519,502.081177 299.000000,512.531372 
	C285.645782,513.000000 272.291534,513.000000 258.468658,513.000000 
z"/>
<path fill="#255FB1" opacity="1.000000" stroke="none" 
	d="
M513.000000,253.531342 
	C509.897614,254.775040 508.096436,257.313599 505.917908,259.305817 
	C498.631592,265.968964 493.381042,274.665039 485.012329,280.266510 
	C484.371582,280.695374 483.540985,281.640289 483.624603,282.227783 
	C484.443878,287.983978 479.440033,292.382416 480.277069,298.356964 
	C480.820557,302.236511 477.891571,305.837494 476.232452,309.427246 
	C473.593231,315.137848 470.612213,320.473053 470.685974,327.277557 
	C470.733582,331.672791 466.665558,335.347198 465.208466,339.782867 
	C464.337494,342.434204 462.903625,344.856995 462.878235,347.786377 
	C462.869934,348.740723 462.670166,350.082733 462.035522,350.578247 
	C458.256317,353.529144 458.427643,357.671417 458.307617,361.772919 
	C458.152557,367.071442 456.840698,371.716949 454.263885,376.681610 
	C451.860321,381.312378 451.485657,387.319794 449.244873,392.458954 
	C448.899750,393.250427 449.024048,394.640289 449.518219,395.337006 
	C451.848053,398.621643 450.028992,401.138550 447.963287,403.307434 
	C445.716400,405.666473 444.713074,408.215210 444.955963,411.407440 
	C445.029816,412.377472 445.045166,413.599701 444.540833,414.327942 
	C438.996704,422.332916 439.073944,432.565399 433.992767,440.729980 
	C433.186737,442.025208 433.660400,443.312317 433.865723,444.604523 
	C434.298523,447.328064 434.083160,450.217072 432.767731,452.410065 
	C427.668030,460.911896 428.100647,470.539337 428.392731,479.536133 
	C428.676422,488.272858 427.604736,497.057617 428.861603,505.787964 
	C429.156677,507.837524 428.358948,510.044434 428.031982,512.589478 
	C422.645081,513.000000 417.290131,513.000000 411.467590,513.000000 
	C409.267059,511.651062 408.685059,509.803284 408.765472,507.702423 
	C409.269440,494.539948 407.426849,481.435547 407.749878,468.287018 
	C407.903900,462.016693 407.918549,455.690308 411.840118,450.108978 
	C413.488922,447.762390 412.584747,444.582642 412.676819,441.771118 
	C412.833008,437.001434 412.088837,432.105560 415.881226,428.092346 
	C417.150543,426.749054 416.667969,424.584137 416.685242,422.761688 
	C416.742096,416.773315 415.941467,410.612762 417.894287,404.895813 
	C419.884949,399.068207 420.696503,393.172272 421.451050,387.134796 
	C422.046631,382.369385 425.423187,378.494781 427.595184,374.281982 
	C428.869537,371.810181 429.831696,369.632294 429.777832,366.891785 
	C429.698303,362.844452 430.260254,358.924469 432.665680,355.480835 
	C434.006531,353.561249 433.726959,351.328735 433.719818,349.184143 
	C433.706207,345.092041 434.245819,341.204498 437.155975,338.021088 
	C437.489655,337.656097 437.857544,337.205231 437.893799,336.732849 
	C438.308990,331.327850 441.614594,326.834625 442.851074,321.876862 
	C444.642303,314.694946 448.378326,308.442017 450.542206,301.652069 
	C452.271881,296.224426 454.219666,290.781067 456.012238,285.364624 
	C458.368134,278.246033 460.471558,271.171783 461.171875,263.697296 
	C461.281830,262.523773 462.050812,261.551514 462.902557,260.721161 
	C465.910736,257.788391 468.450165,254.701569 469.328552,250.308563 
	C469.891174,247.494980 472.563202,245.636154 474.711975,243.922028 
	C484.153381,236.390610 489.707642,226.131348 495.344727,215.826279 
	C498.827332,209.459885 502.340790,203.033676 507.950623,198.114792 
	C509.279755,196.949402 510.462616,195.941071 512.666504,196.763367 
	C513.000000,215.687561 513.000000,234.375122 513.000000,253.531342 
z"/>
<path fill="#225CAE" opacity="1.000000" stroke="none" 
	d="
M415.483429,230.668793 
	C418.413147,228.240341 419.788879,224.918655 420.552155,221.888306 
	C423.695282,209.409134 433.330811,200.112427 436.888855,187.991302 
	C440.309082,176.339798 447.201080,166.421158 451.923462,155.472092 
	C455.097168,148.113586 461.572479,143.502258 465.297882,136.764114 
	C465.610748,136.198227 466.273376,135.802399 466.508850,135.220459 
	C470.958923,124.222107 478.020966,114.806137 486.258240,106.653160 
	C492.396881,100.577293 498.850128,95.148773 502.753021,87.169907 
	C504.496338,83.606010 508.607208,83.909531 512.573853,84.000038 
	C513.000000,109.354225 513.000000,134.708450 513.000000,160.531342 
	C509.051270,168.244476 503.009949,173.716675 496.883270,178.909317 
	C492.043762,183.011032 486.872650,186.592545 484.204254,192.621429 
	C483.935028,193.229736 483.656097,193.894501 483.136780,194.293701 
	C476.258881,199.580627 472.948212,207.671158 467.527985,214.099579 
	C466.437683,215.392609 465.747192,216.896515 465.164490,218.464462 
	C464.407776,220.500748 463.652527,222.670456 462.087219,224.126190 
	C454.024261,231.624741 451.356812,242.262665 446.270874,251.454544 
	C444.045624,255.476212 444.504242,260.829956 441.358673,264.832367 
	C439.937592,266.640533 438.731995,268.282898 435.796204,267.558594 
	C432.878448,264.347931 433.514923,260.454803 432.824371,256.953644 
	C430.951599,247.458939 427.533997,239.092590 418.392761,234.278915 
	C417.047943,233.570755 415.846924,232.673935 415.483429,230.668793 
z"/>
<path fill="#245FB0" opacity="1.000000" stroke="none" 
	d="
M435.755920,267.193390 
	C440.285828,264.452148 442.169800,260.200073 442.713867,255.916809 
	C443.307739,251.241547 445.179871,247.330307 447.412842,243.486649 
	C450.004395,239.025757 452.443298,234.516281 454.287201,229.694534 
	C454.524048,229.075150 454.645111,228.216675 455.110626,227.908966 
	C461.335297,223.794540 462.384033,215.957138 467.365906,210.954407 
	C468.282440,210.034027 469.072906,208.886581 469.603546,207.701538 
	C471.588806,203.268051 473.948730,199.135651 477.976929,196.214096 
	C483.303162,192.351105 484.198547,185.033813 490.002899,181.369827 
	C498.570709,175.961426 504.280396,167.240784 512.684326,161.105774 
	C513.000000,172.687561 513.000000,184.375122 513.000000,196.531342 
	C508.426819,199.592407 504.600952,203.837296 502.708710,207.967712 
	C498.600311,216.935577 492.798798,224.829987 488.162445,233.418396 
	C485.890228,237.627350 482.007690,241.502808 477.844208,244.640045 
	C474.475800,247.178253 470.746185,249.629471 470.707947,254.717911 
	C470.700348,255.725555 469.925323,257.081726 469.081116,257.672241 
	C462.849762,262.030884 463.362274,268.882050 461.730377,275.208496 
	C460.174469,281.240265 458.802917,287.575287 455.482147,293.095184 
	C455.056763,293.802216 454.289124,294.547729 454.319855,295.247314 
	C454.661072,303.021027 449.363464,308.601929 446.779358,315.230011 
	C445.902283,317.479675 446.784210,320.748749 445.448273,322.425201 
	C440.892792,328.141937 442.479614,336.240845 437.478699,341.629486 
	C437.263397,341.861481 437.025452,342.248169 437.069061,342.519287 
	C438.626678,352.212341 429.993225,360.205261 432.469635,370.058807 
	C432.661011,370.820190 432.752960,372.202240 432.381042,372.418488 
	C428.125183,374.892700 428.584015,380.188049 425.583679,383.450531 
	C422.811523,386.464783 422.611267,390.478546 423.229065,394.288361 
	C423.708405,397.244354 423.642334,399.335999 421.350861,401.878021 
	C418.791779,404.716888 419.535339,409.111694 419.079163,412.847748 
	C418.738708,415.636261 418.966919,418.499359 419.009613,421.328217 
	C419.069855,425.320038 420.441956,429.484833 415.855621,432.393921 
	C414.226410,433.427307 415.188934,436.154236 414.987579,438.114075 
	C414.385529,443.974609 416.420990,449.956482 411.798065,455.606354 
	C409.581207,458.315643 410.125885,463.586456 410.068268,467.706268 
	C409.861511,482.497925 411.725616,497.253052 411.000000,512.531372 
	C406.975464,513.000000 402.950897,513.000000 398.463196,513.000000 
	C395.879913,511.395050 395.761139,509.070770 395.704834,506.704437 
	C395.348450,491.725922 395.792267,476.786652 397.846954,461.923645 
	C397.983521,460.935883 397.857208,459.748749 398.543945,459.054260 
	C402.577515,454.975128 401.504333,449.839752 401.676605,444.930267 
	C402.124542,432.167297 404.340820,419.553314 404.951172,406.802124 
	C404.966980,406.471100 404.975861,406.101929 405.132629,405.825653 
	C409.008209,398.995209 408.089111,391.372437 408.694061,384.015320 
	C408.936707,381.064514 409.577972,378.498688 412.134796,376.639496 
	C413.854553,375.388977 414.509125,373.465271 414.566681,371.380981 
	C414.799713,362.943359 417.263824,355.061401 420.519287,347.378540 
	C421.450592,345.180725 421.639282,342.871338 421.707428,340.538116 
	C421.812683,336.936676 422.680176,333.603302 425.242920,330.937866 
	C428.287140,327.771606 427.097595,323.258789 429.165863,319.335907 
	C432.838226,316.980591 433.686157,313.883270 433.665558,310.131348 
	C433.601135,298.388947 433.560150,286.644836 433.695709,274.902710 
	C433.725433,272.329163 433.197906,269.539062 435.755920,267.193390 
z"/>
<path fill="#2A69BE" opacity="1.000000" stroke="none" 
	d="
M145.531342,1.000000 
	C145.259171,4.434350 145.246094,7.795698 145.821564,11.335681 
	C146.952850,18.294889 143.339172,24.500355 140.479691,30.163580 
	C135.333115,40.356400 129.894821,50.448608 124.787994,60.670975 
	C117.190041,75.879837 105.664848,87.438545 92.950478,98.300369 
	C86.035355,104.207924 79.773094,110.920609 72.304909,116.189758 
	C63.589050,122.339218 53.992908,126.818764 44.147102,130.908905 
	C37.475529,133.680405 30.765272,136.408066 24.191177,139.480515 
	C17.236588,142.730820 9.310808,143.903076 1.404619,145.991501 
	C1.000000,137.979095 1.000000,129.958206 1.000000,121.468651 
	C6.682836,117.572411 12.726545,114.993217 19.066317,113.023575 
	C24.527283,111.326973 29.625914,108.625099 35.074680,106.893654 
	C44.237377,103.982040 50.019966,97.075714 55.610481,89.895370 
	C56.019367,89.370201 56.410820,88.690727 56.986927,88.474815 
	C64.312943,85.729179 67.350304,78.607239 72.212708,73.394745 
	C74.519104,70.922287 75.712784,67.449524 77.581635,64.523857 
	C79.738182,61.147808 81.808411,57.745361 85.466583,55.724194 
	C86.042778,55.405849 85.662285,55.996552 85.851166,55.452961 
	C88.272476,48.484608 96.713905,45.567078 98.271194,38.586578 
	C100.460838,28.771660 105.255669,19.503971 104.821655,9.112534 
	C104.702515,6.260024 104.679810,3.388352 107.736298,1.264648 
	C120.354225,1.000000 132.708450,1.000000 145.531342,1.000000 
z"/>
<path fill="#1C52A2" opacity="1.000000" stroke="none" 
	d="
M127.013016,261.791260 
	C119.328552,261.685638 112.148598,262.281799 104.537003,263.002014 
	C101.742798,262.045593 101.891220,259.897766 101.757896,257.936493 
	C101.565895,255.112091 101.679817,252.278015 101.626999,249.448624 
	C101.605263,248.284561 101.778664,247.047928 101.325974,245.982086 
	C98.720879,239.848358 93.286736,243.046097 89.064636,242.474548 
	C85.817444,242.035004 83.595695,243.627045 83.441414,247.242844 
	C83.249718,251.735504 83.477112,256.234283 83.280556,260.724548 
	C83.188194,262.834503 83.542557,265.137451 81.131172,266.856934 
	C70.939880,265.822968 60.900116,266.783722 51.316746,263.608185 
	C47.310955,262.280853 43.088566,262.759583 39.804054,265.009430 
	C31.939232,270.396790 23.285206,271.362488 14.183363,271.021271 
	C10.048105,270.866333 5.891396,270.791016 1.419611,271.966370 
	C1.000000,257.312439 1.000000,242.624878 1.000000,227.468658 
	C4.394495,226.005585 7.767727,225.783386 11.301864,226.513412 
	C15.553912,227.391708 19.730764,227.833389 23.112888,223.783920 
	C24.690769,221.894714 27.526266,221.686630 29.941692,221.058807 
	C36.779007,219.281601 43.165894,216.186920 49.855396,214.041626 
	C55.623039,212.191956 61.634579,210.389297 67.833282,211.323486 
	C70.975639,211.797043 74.080116,211.996719 77.689911,211.991302 
	C80.169945,211.944305 80.832451,213.619720 81.867310,214.865219 
	C85.979141,219.813919 91.047890,221.626328 95.772491,219.888046 
	C101.937111,217.619949 104.745491,213.153214 104.397400,205.989960 
	C104.339584,204.800186 104.290672,203.693436 105.231033,202.425110 
	C108.795235,202.130936 111.821564,201.635071 114.662285,199.411652 
	C117.864441,196.905350 121.973701,198.260849 126.124924,198.008453 
	C129.109528,198.969620 129.193161,201.251801 129.223221,203.388245 
	C129.472870,221.125687 129.464142,238.864227 129.229904,256.601868 
	C129.206039,258.409912 129.118652,260.293488 127.013016,261.791260 
z"/>
<path fill="#225CAE" opacity="1.000000" stroke="none" 
	d="
M429.858765,319.797333 
	C430.109589,325.155670 430.673523,330.227234 425.957214,333.864014 
	C425.154724,334.482849 424.610809,335.929810 424.596497,337.002899 
	C424.424377,349.914917 415.623199,361.040619 416.922760,374.247131 
	C417.038605,375.424469 416.734039,376.833527 415.633026,377.337830 
	C408.890320,380.426025 410.954651,386.575562 410.850616,391.699463 
	C410.778534,395.250793 411.012909,398.667816 409.099365,401.821930 
	C406.442749,406.200928 406.793457,411.219788 406.633911,415.944275 
	C406.203461,428.689728 402.522614,441.229858 404.272003,454.091278 
	C404.431915,455.266907 404.866425,456.778015 403.804443,457.367523 
	C397.779022,460.712311 399.855194,466.820801 399.182587,471.670197 
	C397.326782,485.049408 398.053284,498.583679 398.000000,512.531372 
	C390.645752,513.000000 383.291504,513.000000 375.468628,513.000000 
	C373.762665,506.205383 374.170807,499.772095 376.370148,492.971069 
	C377.846893,488.404510 376.224762,482.838379 376.002716,477.718872 
	C375.871979,474.703369 376.085449,471.811829 377.682770,469.059387 
	C379.045959,466.710449 379.258453,463.953918 378.970032,461.286560 
	C378.162109,453.814636 379.050903,445.886444 380.697174,439.229828 
	C384.107269,425.441101 382.925323,411.300232 386.379822,397.552704 
	C388.584106,388.780670 385.961792,378.902863 387.243378,369.764832 
	C388.856689,358.261688 387.971222,346.263824 393.206512,335.327454 
	C395.513824,330.507599 392.811096,325.503662 392.922150,320.113739 
	C392.929626,317.560699 394.543793,316.915039 396.090485,316.374298 
	C400.648254,314.780914 404.694611,312.271454 408.756042,309.727020 
	C413.720886,306.616638 415.747528,307.320587 417.380554,312.814117 
	C418.378113,316.170044 420.260010,317.743164 423.765961,317.743835 
	C425.843079,317.744232 428.136353,317.467010 429.858765,319.797333 
z"/>
<path fill="#2A69BD" opacity="1.000000" stroke="none" 
	d="
M462.468658,513.000000 
	C461.821350,507.881073 462.468140,503.064026 466.635620,499.398682 
	C467.202179,498.900452 467.848083,497.881836 467.706757,497.280579 
	C465.483459,487.822845 472.293457,479.698669 471.447113,470.184296 
	C471.015839,465.335602 474.622314,460.264771 475.162170,454.901245 
	C476.301727,443.579559 480.079620,432.784668 480.583008,421.159943 
	C480.936859,412.988037 484.826782,404.392975 489.071747,397.114929 
	C494.123962,388.452850 496.357361,378.683258 501.457367,370.182373 
	C505.363617,363.671295 507.758392,356.346710 512.652588,350.094208 
	C513.000000,403.057770 512.976562,456.115540 513.063110,509.173187 
	C513.067871,512.086853 512.676575,513.149658 509.340607,513.100586 
	C493.875671,512.873047 478.405579,513.000000 462.468658,513.000000 
z"/>
<path fill="#2E6EC5" opacity="1.000000" stroke="none" 
	d="
M107.531342,1.000000 
	C106.090866,6.333278 109.025360,12.270754 106.858932,17.184584 
	C103.853745,24.000858 103.358597,31.268148 101.273628,38.191906 
	C100.111855,42.049896 97.829857,45.459663 94.485992,47.857319 
	C91.953041,49.673523 89.743126,51.479820 89.816566,54.973042 
	C89.838554,56.018673 89.083466,56.881271 88.121025,57.276859 
	C81.095673,60.164417 78.976601,66.895325 75.969780,72.878670 
	C75.330177,74.151443 74.644005,75.123245 73.443153,75.781578 
	C72.106133,76.514587 70.532837,77.372520 70.261490,78.808128 
	C69.177750,84.541786 64.145355,86.048309 60.302639,89.059929 
	C55.774632,92.608650 51.856377,97.019272 48.654736,101.868965 
	C47.156590,104.138283 45.460789,105.547028 42.797985,106.001923 
	C41.522396,106.219841 40.210945,106.676651 39.100033,107.335846 
	C32.567280,111.212219 25.495853,113.842461 18.207386,115.666618 
	C12.601826,117.069588 8.154434,121.898376 1.425075,121.000000 
	C1.000000,113.979050 1.000000,106.958107 1.000000,99.468582 
	C6.328658,89.795891 16.195087,87.197678 24.800196,82.864563 
	C29.692230,80.401184 34.779377,78.774124 37.019257,72.814682 
	C38.069298,70.020927 41.115536,68.080200 43.405514,65.898376 
	C44.976158,64.401909 46.755615,62.993683 47.661880,61.040825 
	C49.576164,56.915882 52.536354,53.996868 56.613373,52.096008 
	C59.025955,50.971169 60.635563,49.193245 60.934765,46.422626 
	C61.024651,45.590302 61.204868,44.694054 61.763153,44.095318 
	C71.438408,33.719124 73.512962,20.217928 76.977806,7.282547 
	C77.576843,5.046126 78.080269,2.697847 80.726326,1.251416 
	C89.687561,1.000000 98.375130,1.000000 107.531342,1.000000 
z"/>
<path fill="#3173CA" opacity="1.000000" stroke="none" 
	d="
M80.531342,1.000000 
	C77.813400,13.166971 75.415337,25.561699 70.055550,37.089958 
	C69.097839,39.149864 67.794159,40.726761 66.257896,42.211372 
	C64.417603,43.989792 62.920815,45.826248 62.910030,48.605541 
	C62.899422,51.340542 60.843296,52.598938 58.696110,53.657021 
	C54.770679,55.591370 51.453968,57.955883 49.611557,62.295612 
	C48.696049,64.452065 46.496590,66.112122 44.732281,67.848740 
	C41.663612,70.869240 38.288918,73.587959 36.950508,77.975113 
	C36.274540,80.190849 34.380680,81.172531 32.311077,82.125938 
	C24.066523,85.923988 15.533198,89.117348 7.973053,94.366325 
	C5.845856,95.843239 4.822700,98.859238 1.361440,98.973572 
	C1.000000,89.645775 1.000000,80.291542 1.000000,70.468658 
	C5.601145,64.938171 10.909804,60.758308 16.820919,57.334564 
	C17.693213,56.829327 18.545450,56.296982 19.119276,55.458466 
	C25.944750,45.484600 34.815281,37.029659 41.140232,26.773701 
	C43.991631,22.150143 46.166431,16.672190 46.774452,10.965035 
	C47.208591,6.890046 49.240490,3.854435 52.732277,1.247995 
	C62.020893,1.000000 71.041786,1.000000 80.531342,1.000000 
z"/>
<path fill="#3579D1" opacity="1.000000" stroke="none" 
	d="
M52.531342,1.000000 
	C49.423717,9.326243 48.742920,19.050913 44.080017,26.452692 
	C39.440937,33.816643 34.810863,41.725262 27.917219,47.637867 
	C25.276609,49.902683 23.168394,52.558567 21.691988,55.895802 
	C19.696009,60.407459 14.065951,60.687366 10.835238,64.181473 
	C8.489093,66.718887 5.566526,69.314201 1.362766,69.974838 
	C1.000000,48.079842 1.063521,26.159264 0.920203,4.240042 
	C0.902137,1.477001 1.466931,0.889363 4.237748,0.918462 
	C20.177919,1.085864 36.120754,1.000000 52.531342,1.000000 
z"/>
<path fill="#FDFDFE" opacity="1.000000" stroke="none" 
	d="
M126.643181,262.466431 
	C126.612663,240.979889 126.674538,219.953461 126.644577,198.466843 
	C126.524681,194.849670 128.050903,193.763184 131.193146,193.939423 
	C135.475128,194.179581 139.781509,193.984177 144.540680,193.902771 
	C148.550949,193.560944 150.130936,195.107468 149.768738,198.732910 
	C149.591049,200.511459 149.767685,202.325424 149.887802,204.561646 
	C152.368057,206.705917 152.240112,209.257797 152.262527,211.752411 
	C152.348740,221.346008 152.182739,230.943542 152.382004,241.599594 
	C158.928665,235.854874 163.478165,229.561234 168.757324,223.986160 
	C173.876648,218.579956 178.753952,212.942520 183.311600,207.034714 
	C185.156570,204.643188 187.462967,202.741959 190.992035,202.239716 
	C194.814255,196.571533 198.958694,192.829376 206.409561,193.843369 
	C212.088135,194.616180 217.956390,194.022644 223.739929,193.985855 
	C226.926956,193.965576 228.335922,194.916595 226.053741,198.422028 
	C225.946945,201.909241 223.910950,203.990067 222.046432,206.057922 
	C211.384232,217.882965 201.072830,230.028809 189.625809,241.601990 
	C188.505951,242.856369 187.178238,243.413330 186.388672,244.958862 
	C185.572922,247.121765 183.751770,248.417023 183.776611,250.845184 
	C197.474625,271.486359 211.056625,291.809784 224.515167,312.214691 
	C225.875763,314.277557 229.090897,316.261841 227.437378,318.988373 
	C226.050385,321.275421 222.811310,319.881714 220.414185,319.953674 
	C214.922989,320.118469 209.423721,320.014069 203.462036,320.077301 
	C201.129730,319.123260 200.342102,317.199097 199.244003,315.570984 
	C188.839020,300.144012 178.362076,284.763153 168.190598,269.183075 
	C165.896744,265.669495 165.083221,266.459808 162.306442,268.814575 
	C152.003220,277.551941 147.507523,288.093170 149.624557,301.611053 
	C150.336319,306.155853 149.590424,310.912292 149.779037,315.561096 
	C149.921890,319.082092 148.496857,320.251099 145.064926,320.061218 
	C140.754196,319.822723 136.401917,319.756561 132.101593,320.075165 
	C127.995705,320.379303 126.647125,319.025940 126.695358,314.812073 
	C126.893295,297.519043 126.752037,280.222076 126.643181,262.466431 
z"/>
<path fill="#FDFDFE" opacity="1.000000" stroke="none" 
	d="
M430.422882,320.098267 
	C429.668182,320.122986 429.339417,320.043610 429.008820,320.035065 
	C425.188721,319.935852 420.859253,320.942047 417.683380,319.465118 
	C414.114441,317.805359 416.258240,312.476654 414.132385,308.740021 
	C407.750122,313.329437 401.333405,317.760315 393.202606,319.455383 
	C389.254852,319.932007 385.601898,320.291382 381.957306,319.707062 
	C370.304352,317.838867 361.894012,310.020203 360.100067,299.429535 
	C358.043427,287.288025 362.447052,277.930298 373.267548,271.795776 
	C384.065155,265.674225 396.087280,263.804138 408.135773,262.361481 
	C411.951935,261.904541 412.346893,260.536316 411.471466,257.344849 
	C409.715576,250.943710 405.736572,247.488953 399.105988,246.948776 
	C390.834869,246.274963 383.313507,248.772156 376.246399,252.688171 
	C372.730469,254.636414 370.435699,254.421768 368.896393,250.476166 
	C368.418671,249.251633 367.607239,248.157440 366.950012,247.002747 
	C362.724121,239.578247 362.714600,239.557861 370.698303,235.771729 
	C384.757507,229.104385 399.299530,226.180389 415.100281,230.243439 
	C431.582001,236.925476 435.345886,250.638077 436.099609,266.557068 
	C436.114197,282.894318 435.936768,298.792145 436.088989,314.686859 
	C436.127594,318.716919 435.074585,320.669067 430.422882,320.098267 
z"/>
<path fill="#FDFDFE" opacity="1.000000" stroke="none" 
	d="
M345.082031,319.581940 
	C338.907745,319.973541 332.917206,319.868927 326.935669,320.054535 
	C323.884613,320.149231 322.878479,319.031006 322.883636,316.009888 
	C322.950409,276.761810 322.984467,237.513382 322.841217,198.265701 
	C322.825500,193.954758 325.015350,193.719727 328.567474,193.900085 
	C333.314728,193.887634 337.635864,194.055588 341.951111,193.959686 
	C344.656189,193.899551 345.918182,194.801682 345.913940,197.652435 
	C345.854218,237.717468 345.847046,277.782562 345.800934,317.847626 
	C345.800415,318.300568 345.454285,318.753082 345.082031,319.581940 
z"/>
<path fill="#FDFDFE" opacity="1.000000" stroke="none" 
	d="
M105.261612,201.929245 
	C107.658310,208.122726 107.126961,213.671249 102.569641,218.317535 
	C98.675919,222.287247 93.867287,223.721329 88.437637,222.065109 
	C83.574173,220.581589 80.034340,217.600037 78.384384,212.248352 
	C77.696266,207.406372 78.171043,203.064194 81.223701,199.316193 
	C87.700119,191.364578 98.699577,192.447891 105.261612,201.929245 
z"/>
<path fill="#FDFDFE" opacity="1.000000" stroke="none" 
	d="
M80.816414,267.470306 
	C80.804558,259.378387 81.001060,251.746948 80.871422,244.121033 
	C80.816116,240.867554 81.912224,239.686249 85.168465,239.818588 
	C90.139206,240.020615 95.126541,239.968170 100.102036,239.838882 
	C102.905586,239.766006 103.959373,240.914886 103.921120,243.659164 
	C103.835548,249.798325 103.912216,255.939743 104.011253,262.541626 
	C104.032326,280.156982 103.825836,297.312286 103.993362,314.463898 
	C104.036354,318.864563 102.750313,320.442566 98.326027,320.080475 
	C94.023514,319.728271 89.656639,319.796692 85.342270,320.067169 
	C81.698814,320.295563 80.843239,318.778778 80.869553,315.410339 
	C80.993156,299.585449 80.905182,283.758942 80.816414,267.470306 
z"/>
<path fill="#FDFDFE" opacity="1.000000" stroke="none" 
	d="
M304.388489,320.010773 
	C299.851624,320.112396 295.693146,319.834381 291.564880,320.074890 
	C287.902832,320.288269 285.901703,319.325317 285.869080,315.289307 
	C285.852417,313.223236 285.149384,311.162689 284.627228,308.420563 
	C275.011902,315.845093 265.067474,321.124695 252.453033,319.922852 
	C243.904388,317.915253 236.831024,314.463501 232.764084,306.552307 
	C226.517761,294.401642 229.824951,281.372620 241.663300,272.682007 
	C241.978546,269.751953 244.051758,268.877472 245.985825,267.900482 
	C254.276184,263.712524 263.271698,262.112946 272.329346,260.740723 
	C274.728668,260.377228 277.891479,260.756195 278.361572,257.549286 
	C278.859497,254.152771 276.479614,252.046341 273.554840,250.735413 
	C269.605011,248.965027 265.448883,249.032654 261.303741,249.740997 
	C257.516541,250.388184 253.917709,251.660385 250.472443,253.403107 
	C247.070587,255.123856 243.284225,257.655670 239.831985,254.528275 
	C235.893509,250.960388 232.927307,246.375031 232.469437,240.817551 
	C232.261124,238.289185 233.990036,236.492249 236.212677,235.365341 
	C250.604980,228.068146 265.572266,223.749084 281.859589,227.102631 
	C285.561462,227.864838 289.425323,228.772675 291.686829,232.951660 
	C302.402527,241.067703 305.873962,252.127823 306.023804,264.500366 
	C306.229156,281.456482 306.108948,298.416718 306.087494,315.375122 
	C306.085510,316.953400 306.642090,318.783539 304.388489,320.010773 
z"/>
<path fill="#1D53A2" opacity="1.000000" stroke="none" 
	d="
M291.889099,232.892014 
	C272.475769,224.315552 254.221710,228.781143 236.342194,238.017075 
	C233.841293,239.308960 233.599045,240.656586 234.861343,243.145523 
	C240.624207,254.508408 240.564926,254.576523 252.253220,249.914749 
	C257.731323,247.729874 263.336182,246.463898 269.265320,246.940475 
	C273.436798,247.275757 277.019623,248.767944 279.484741,252.299881 
	C283.955048,258.704865 282.748077,261.783661 275.320923,262.754059 
	C263.903534,264.245758 252.735062,266.550781 242.210632,272.304565 
	C235.198029,268.498199 230.644043,262.234589 225.198792,256.952545 
	C222.861771,254.685593 220.254501,252.670288 218.729294,249.508789 
	C217.545044,247.054047 215.032410,245.814178 212.037201,245.980743 
	C209.713120,246.109970 207.367630,245.881500 205.047165,246.039597 
	C203.332870,246.156403 200.520950,245.096664 200.172134,247.098816 
	C199.723557,249.673492 202.866791,248.576324 204.308090,249.352493 
	C205.185150,249.824799 206.323273,250.101547 206.332809,251.278122 
	C206.346420,252.956390 204.894058,252.962723 203.796127,252.931534 
	C199.209015,252.801163 194.453659,253.944153 190.234772,250.937469 
	C188.514893,249.711777 186.485535,249.683182 184.232224,250.911758 
	C180.530640,248.629593 182.207489,246.496780 184.736816,244.255402 
	C186.445465,243.805801 187.772171,243.418991 187.907684,241.305313 
	C200.365936,227.005890 212.834106,213.051605 225.603485,198.940033 
	C229.720444,200.506897 231.718201,196.395813 234.887054,195.959686 
	C235.977692,195.809570 237.202011,194.031372 237.974030,194.800751 
	C243.092575,199.901978 251.457382,196.340134 256.237213,201.593170 
	C261.064117,206.897964 266.549957,207.187042 273.192474,206.198776 
	C280.120544,205.168076 281.246460,206.728088 282.017181,213.898514 
	C282.162415,215.249863 282.208130,216.700211 283.512787,217.416199 
	C289.490631,220.696808 290.504852,226.684906 291.889099,232.892014 
z"/>
<path fill="#1D53A2" opacity="1.000000" stroke="none" 
	d="
M190.923859,202.031143 
	C177.830521,217.290176 164.335724,232.459854 149.785904,248.815491 
	C149.785904,233.546722 149.785904,219.732193 149.888763,205.458801 
	C156.670303,203.700409 163.446350,204.330475 170.210724,201.690308 
	C176.386902,199.279739 183.796600,198.675262 190.923859,202.031143 
z"/>
<path fill="#2059AA" opacity="1.000000" stroke="none" 
	d="
M314.497559,172.846268 
	C313.890106,173.662186 313.257599,173.840820 312.816864,173.105225 
	C312.664429,172.850800 312.924225,172.071121 313.219971,171.881882 
	C313.928802,171.428375 314.457062,171.742889 314.497559,172.846268 
z"/>
<path fill="#225CAE" opacity="1.000000" stroke="none" 
	d="
M441.445312,293.145020 
	C441.870148,293.973389 441.911652,294.624512 441.219788,295.015350 
	C441.059235,295.106049 440.500824,294.873016 440.432678,294.680298 
	C440.150360,293.881927 439.951752,293.024597 441.445312,293.145020 
z"/>
<path fill="#225CAE" opacity="1.000000" stroke="none" 
	d="
M479.634338,212.024597 
	C479.645691,211.530197 479.807373,211.177765 479.969055,210.825317 
	C480.174194,211.005539 480.522125,211.162369 480.556213,211.370590 
	C480.641205,211.889191 480.375244,212.223343 479.634338,212.024597 
z"/>
<path fill="#225CAE" opacity="1.000000" stroke="none" 
	d="
M467.336334,233.037842 
	C467.114136,233.123459 466.896393,233.071335 466.678650,233.019211 
	C466.899353,232.979507 467.120087,232.939789 467.336334,233.037842 
z"/>
<path fill="#225CAE" opacity="1.000000" stroke="none" 
	d="
M502.663635,183.962189 
	C502.885834,183.876541 503.103577,183.928665 503.321320,183.980804 
	C503.100616,184.020538 502.879913,184.060242 502.663635,183.962189 
z"/>
<path fill="#194E9C" opacity="1.000000" stroke="none" 
	d="
M187.615112,241.088135 
	C189.003860,241.747574 190.287384,242.662613 189.248016,244.123016 
	C188.365921,245.362411 186.903839,245.017334 185.333862,244.288239 
	C185.807465,243.142914 186.569962,242.179504 187.615112,241.088135 
z"/>
<path fill="#225CAE" opacity="1.000000" stroke="none" 
	d="
M385.042419,298.982727 
	C380.788239,292.276978 382.005096,286.628265 388.454559,282.576965 
	C394.955750,278.493195 402.434998,277.490295 409.792969,276.150269 
	C411.659485,275.810303 412.057617,276.723969 412.039581,278.339691 
	C411.989471,282.833893 412.055054,287.329437 411.990479,291.823273 
	C411.979462,292.588867 411.768005,293.546173 411.281799,294.080780 
	C405.206390,300.760590 393.717041,305.392700 385.042419,298.982727 
z"/>
<path fill="#1D53A2" opacity="1.000000" stroke="none" 
	d="
M282.143921,278.348633 
	C282.151703,281.465912 281.756348,284.193848 282.230957,286.760956 
	C283.477142,293.501678 279.499390,296.813477 274.422607,299.483337 
	C268.692383,302.496887 262.710236,303.387482 256.832214,300.155334 
	C252.027283,297.513275 250.944244,290.130432 254.975555,285.829926 
	C262.073608,278.257904 271.919098,277.528809 281.432556,276.252197 
	C281.591522,276.230896 281.899078,277.316742 282.143921,278.348633 
z"/>
<path fill="#194E9C" opacity="1.000000" stroke="none" 
	d="
M196.246155,242.541901 
	C197.273300,242.624329 197.691345,243.102997 197.411423,243.842606 
	C197.139832,244.560226 196.458755,244.734207 195.872940,244.243698 
	C195.271332,243.740005 195.384399,243.115707 196.246155,242.541901 
z"/>
</svg>